<svg width="262" height="27" viewBox="0 0 262 27" fill="none" xmlns="http://www.w3.org/2000/svg">
<path d="M50.7546 21H56.5425C60.986 21 62.5127 19.0175 62.5127 15.6906C62.5127 12.8878 60.9632 10.8826 56.6564 10.8826H53.922V7.66961H61.2366V4.82124H50.7546V21ZM53.922 18.1744V13.6398H56.6109C58.2059 13.6398 59.1858 14.3234 59.1858 15.8729C59.1858 17.3769 58.3427 18.1744 56.5881 18.1744H53.922ZM70.1892 21.2051C71.6476 21.2051 72.7642 20.6582 73.5389 19.6556L73.5845 19.6784V21H76.4329V9.85716H73.4478V11.1332L73.4022 11.156C72.6047 10.199 71.4197 9.69765 70.1209 9.69765C67.1358 9.69765 64.8799 12.0903 64.8799 15.4628C64.8799 18.9036 67.1358 21.2051 70.1892 21.2051ZM70.7589 18.5162C69.0727 18.5162 67.9105 17.2629 67.9105 15.4855C67.9105 13.5714 69.141 12.3637 70.7589 12.3637C72.354 12.3637 73.5845 13.6854 73.5845 15.4855C73.5845 17.3085 72.2856 18.5162 70.7589 18.5162ZM79.9538 21H82.9389V16.7844H87.2229V21H90.2307V9.85716H87.2229V14.3234H82.9389V9.85716H79.9538V21ZM93.8557 21H96.818V17.9238L98.1852 16.3515L101.307 21H104.748L100.373 14.6424L104.497 9.85716H100.942L96.8635 14.7564H96.818V9.85716H93.8557V21ZM111.821 21.2051C115.284 21.2051 117.723 18.8352 117.723 15.44C117.723 12.0219 115.284 9.69765 111.821 9.69765C108.266 9.69765 105.896 12.1131 105.896 15.44C105.896 18.7669 108.266 21.2051 111.821 21.2051ZM111.821 18.5162C110.112 18.5162 108.927 17.1718 108.927 15.44C108.927 13.6854 110.089 12.3637 111.821 12.3637C113.461 12.3637 114.692 13.617 114.692 15.44C114.692 17.2629 113.416 18.5162 111.821 18.5162ZM120.747 21H126.467C129.771 21 130.842 19.61 130.842 17.787C130.842 16.4198 129.953 15.4628 128.426 15.1437V15.0982C129.793 14.6424 130.272 13.7537 130.272 12.5688C130.272 10.8142 128.973 9.85716 126.147 9.85716H120.747V21ZM123.641 14.3462V12.2042H125.965C126.74 12.2042 127.332 12.4777 127.332 13.2524C127.332 14.0044 126.877 14.3462 125.783 14.3462H123.641ZM123.641 18.6529V16.3742H126.216C127.264 16.3742 127.811 16.716 127.811 17.468C127.811 18.2883 127.31 18.6529 126.147 18.6529H123.641ZM138.841 21.2051C141.211 21.2051 142.738 20.362 143.695 19.177L141.758 17.3085C141.166 18.0377 140.277 18.5162 139.138 18.5162C137.36 18.5162 136.13 17.2857 136.13 15.44C136.13 13.617 137.337 12.3637 139.138 12.3637C140.186 12.3637 141.097 12.8195 141.69 13.5487L143.649 11.7029C142.487 10.3357 140.664 9.69765 138.932 9.69765C135.492 9.69765 133.099 12.0219 133.099 15.4628C133.099 18.8808 135.514 21.2051 138.841 21.2051ZM146.437 21H149.399V17.9238L150.766 16.3515L153.888 21H157.329L152.954 14.6424L157.078 9.85716H153.523L149.445 14.7564H149.399V9.85716H146.437V21ZM159.738 21H162.609L167.189 14.2323H167.235V21H170.197V9.85716H167.371L162.746 16.9439H162.7V9.85716H159.738V21ZM184.208 15.326C184.208 12.0675 182.02 9.69765 178.876 9.69765C175.572 9.69765 173.225 12.0219 173.225 15.4172C173.225 18.9036 175.64 21.2051 179.058 21.2051C181.542 21.2051 182.977 20.2936 183.912 19.0859L181.975 17.2857C181.382 18.0149 180.516 18.539 179.263 18.539C177.759 18.539 176.688 17.7415 176.324 16.397H184.139C184.162 16.2147 184.208 15.6906 184.208 15.326ZM178.853 12.2954C180.152 12.2954 180.949 13.0701 181.246 14.2551H176.346C176.688 12.979 177.645 12.2954 178.853 12.2954ZM193.744 21H196.706V17.9238L198.073 16.3515L201.195 21H204.636L200.261 14.6424L204.385 9.85716H200.83L196.752 14.7564H196.706V9.85716H193.744V21ZM211.071 21.2051C212.529 21.2051 213.646 20.6582 214.42 19.6556L214.466 19.6784V21H217.314V9.85716H214.329V11.1332L214.284 11.156C213.486 10.199 212.301 9.69765 211.002 9.69765C208.017 9.69765 205.761 12.0903 205.761 15.4628C205.761 18.9036 208.017 21.2051 211.071 21.2051ZM211.64 18.5162C209.954 18.5162 208.792 17.2629 208.792 15.4855C208.792 13.5714 210.022 12.3637 211.64 12.3637C213.235 12.3637 214.466 13.6854 214.466 15.4855C214.466 17.3085 213.167 18.5162 211.64 18.5162ZM220.835 25.5118H223.82V19.7695L223.866 19.7467C224.641 20.681 225.734 21.2051 227.124 21.2051C230.224 21.2051 232.479 18.9036 232.479 15.4628C232.479 12.0903 230.224 9.69765 227.216 9.69765C225.848 9.69765 224.663 10.199 223.866 11.1332H223.82V9.85716H220.835V25.5118ZM226.6 18.5162C224.96 18.5162 223.684 17.3085 223.684 15.4855C223.684 13.6854 224.869 12.3637 226.578 12.3637C228.173 12.3637 229.449 13.5714 229.449 15.4855C229.449 17.2629 228.264 18.5162 226.6 18.5162ZM237.529 21H240.514V12.3865H243.795V9.85716H234.27V12.3865H237.529V21ZM246.503 21H250.969C254.524 21 255.8 19.3593 255.8 16.9667C255.8 14.6196 254.592 13.0701 251.083 13.0701H249.465V9.85716H246.503V21ZM257.418 21H260.403V9.85716H257.418V21ZM249.374 18.5618V15.44H250.923C252.108 15.44 252.769 15.9185 252.769 17.0123C252.769 18.0377 252.108 18.5618 250.878 18.5618H249.374Z" fill="#9F9F9F"/>
<path d="M39.7539 26.431H2.69266C2.64937 26.4027 2.60342 26.3787 2.55548 26.3593C1.38402 26.0115 0.71844 25.1671 0.716296 23.9438C0.709151 17.2013 0.709151 10.4588 0.716296 3.71633C0.705884 3.38158 0.765082 3.04831 0.890155 2.73755C1.01523 2.42679 1.20346 2.1453 1.44297 1.91085C1.97886 1.38108 2.64872 1.21412 3.38611 1.21412C15.2843 1.2184 27.1811 1.2184 39.0765 1.21412C39.2635 1.2137 39.4504 1.22514 39.636 1.24837C40.1314 1.30838 40.5954 1.52213 40.9627 1.85949C41.3299 2.19686 41.5819 2.64081 41.6831 3.12877C41.7056 3.2358 41.7388 3.33212 41.7656 3.43379V24.1878C41.6949 24.4802 41.6061 24.7679 41.4998 25.0493C41.1633 25.8071 40.5159 26.1934 39.7539 26.431ZM8.84899 13.464C9.58423 13.464 10.3195 13.4726 11.0547 13.464C12.1769 13.448 13.0193 12.7149 13.0697 11.5997C13.1254 10.3486 13.1254 9.08999 13.0697 7.83781C13.0204 6.73975 12.1865 5.997 11.089 5.98523C9.60567 5.97025 8.12232 5.97025 6.63897 5.98523C5.46001 5.997 4.63366 6.84891 4.62509 8.0251C4.61652 9.15955 4.61652 10.294 4.62509 11.4284C4.63366 12.5993 5.47501 13.4448 6.64647 13.4619C7.37957 13.4737 8.11482 13.463 8.84899 13.464ZM10.387 18.8516H4.48147V21.2008H10.387V18.8516ZM13.6934 18.8409V21.1954H19.5883V18.8409H13.6934ZM28.7681 21.2083V18.843H22.8733V21.2083H28.7681ZM37.9801 18.8473H32.0788V21.1901H37.9801V18.8473Z" fill="#AFAFAF"/>
</svg>
