<svg width="184" height="27" viewBox="0 0 184 27" fill="none" xmlns="http://www.w3.org/2000/svg">
<path d="M38.7546 21H41.7397L48.8037 10.2673H48.8492V21H52.0394V4.82124H49.1455L42.0131 15.759L41.9676 15.7362V4.82124H38.7546V21ZM56.2614 21H59.4972V7.6924H65.4446V21H68.6575V4.82124H56.2614V21ZM79.1408 21H82.012L86.5921 14.2323H86.6377V21H89.6V9.85716H86.7744L82.1487 16.9439H82.1031V9.85716H79.1408V21ZM94.9747 9.85716C94.9747 11.6118 94.9519 14.0955 94.7241 15.7362C94.4962 17.3313 93.9493 18.4479 92.8783 18.4479C92.6505 18.4479 92.5137 18.4251 92.3314 18.3795L92.1719 20.9316C92.5137 21.0684 93.0378 21.1367 93.4708 21.1367C95.8862 21.1367 96.98 19.4961 97.4129 16.8756C97.618 15.5767 97.732 14.0728 97.8003 12.3865H100.375V21H103.383V9.85716H94.9747ZM107.011 21H109.882L114.463 14.2323H114.508V21H117.47V9.85716H114.645L110.019 16.9439H109.974V9.85716H107.011V21ZM135.511 21.2051C140.251 21.2051 143.737 17.8326 143.737 12.9106C143.737 7.96584 140.251 4.61615 135.511 4.61615C130.612 4.61615 127.262 8.10256 127.262 12.9106C127.262 17.7187 130.612 21.2051 135.511 21.2051ZM135.511 18.1972C132.594 18.1972 130.589 15.8501 130.589 12.9106C130.589 9.9711 132.594 7.62404 135.511 7.62404C138.291 7.62404 140.387 9.85716 140.387 12.9106C140.387 15.9641 138.291 18.1972 135.511 18.1972ZM154.865 21.2051C159.605 21.2051 163.091 17.8326 163.091 12.9106C163.091 7.96584 159.605 4.61615 154.865 4.61615C149.966 4.61615 146.616 8.10256 146.616 12.9106C146.616 17.7187 149.966 21.2051 154.865 21.2051ZM154.865 18.1972C151.948 18.1972 149.943 15.8501 149.943 12.9106C149.943 9.9711 151.948 7.62404 154.865 7.62404C157.645 7.62404 159.741 9.85716 159.741 12.9106C159.741 15.9641 157.645 18.1972 154.865 18.1972ZM174.219 21.2051C178.958 21.2051 182.445 17.8326 182.445 12.9106C182.445 7.96584 178.958 4.61615 174.219 4.61615C169.319 4.61615 165.97 8.10256 165.97 12.9106C165.97 17.7187 169.319 21.2051 174.219 21.2051ZM174.219 18.1972C171.302 18.1972 169.297 15.8501 169.297 12.9106C169.297 9.9711 171.302 7.62404 174.219 7.62404C176.999 7.62404 179.095 9.85716 179.095 12.9106C179.095 15.9641 176.999 18.1972 174.219 18.1972Z" fill="#9F9F9F"/>
<path d="M10.9846 22.6945H2.32768C1.40405 22.6945 0.892504 22.194 0.89724 21.2735C0.904345 19.8762 0.861716 18.4742 0.950132 17.0816C1.09302 14.8176 3.11711 12.8353 5.38119 12.6427C5.68512 12.6174 5.99063 12.6032 6.29535 12.6032C9.50595 12.6032 12.7173 12.5835 15.9264 12.608C18.1099 12.6245 19.6951 13.6397 20.6432 15.6157C20.959 16.2741 21.0766 16.9822 21.0798 17.7085C21.0834 18.9094 21.0834 20.1107 21.0798 21.3122C21.0798 22.1758 20.5579 22.6921 19.699 22.6929L10.9846 22.6945Z" fill="#9F9F9F"/>
<path d="M16.0267 5.03261C16.0278 6.02953 15.7331 7.00436 15.1799 7.83372C14.6267 8.66308 13.84 9.30969 12.9191 9.6917C11.9983 10.0737 10.9849 10.1739 10.007 9.97972C9.02922 9.7855 8.131 9.30555 7.42608 8.60063C6.72115 7.8957 6.2412 6.99748 6.04698 6.01967C5.85276 5.04185 5.953 4.02839 6.335 3.10757C6.71701 2.18675 7.36362 1.39995 8.19298 0.846778C9.02234 0.293602 9.99718 -0.00108983 10.9941 3.02862e-06C12.3279 0.00292262 13.6063 0.534079 14.5495 1.47724C15.4926 2.42041 16.0238 3.69877 16.0267 5.03261Z" fill="#9F9F9F"/>
<path d="M23.6232 19.457C23.5932 18.5334 23.6042 17.6058 23.5229 16.6861C23.4132 15.4577 22.9451 14.347 22.2449 13.3334C22.1971 13.2709 22.1528 13.2058 22.1122 13.1384C21.9788 12.8913 22.0925 12.63 22.368 12.6126C24.0842 12.5061 25.7183 12.6995 27.0398 13.9618C28.0811 14.9565 28.6187 16.1777 28.6432 17.6145C28.6621 18.8641 28.655 20.1146 28.6432 21.365C28.6376 22.1718 28.1056 22.6913 27.3011 22.6936C26.3365 22.6936 25.3718 22.6936 24.4071 22.6936C23.8719 22.6936 23.5742 22.3865 23.5758 21.8489C23.5758 21.0516 23.5758 20.2543 23.5758 19.457H23.6232Z" fill="#9F9F9F"/>
<path d="M23.5932 5.0437C23.5932 8.11063 20.9225 10.4355 17.8604 10.0392C17.3409 9.9721 17.1262 9.52923 17.4064 9.05952C17.8239 8.37995 18.1354 7.64071 18.3301 6.86728C18.8092 4.85898 18.5243 2.96356 17.4956 1.1755C17.4018 1.02709 17.3357 0.862847 17.3006 0.690795C17.2509 0.341868 17.4585 0.107408 17.8043 0.0592528C20.8894 -0.374933 23.5955 1.95467 23.5932 5.0437Z" fill="#9F9F9F"/>
</svg>
