<svg width="161" height="34" viewBox="0 0 161 34" fill="none" xmlns="http://www.w3.org/2000/svg">
<path d="M51.566 23H59.666V21.056H53.744V10.22H51.566V23ZM65.7184 23.144C68.4184 23.144 70.3264 21.29 70.3264 18.626C70.3264 15.926 68.4184 14.09 65.7184 14.09C62.9464 14.09 61.1104 16.034 61.1104 18.626C61.1104 21.2 62.9464 23.144 65.7184 23.144ZM65.7184 21.308C64.2064 21.308 63.1624 20.12 63.1624 18.626C63.1624 17.096 64.1884 15.908 65.7184 15.908C67.1584 15.908 68.2744 17.006 68.2744 18.626C68.2744 20.21 67.1404 21.308 65.7184 21.308ZM74.4531 23H76.3791L79.8711 14.216H77.7291L75.4431 20.48H75.4251L73.1391 14.216H70.9791L74.4531 23ZM89.0315 18.5C89.0315 15.944 87.3575 14.09 84.8915 14.09C82.3175 14.09 80.4815 15.908 80.4815 18.608C80.4815 21.362 82.3715 23.144 85.0355 23.144C86.9255 23.144 88.0235 22.442 88.7615 21.488L87.3575 20.282C86.9075 20.84 86.1875 21.308 85.1435 21.308C83.7755 21.308 82.8215 20.552 82.5695 19.274H88.9775C88.9955 19.13 89.0315 18.824 89.0315 18.5ZM84.8735 15.908C86.0255 15.908 86.7455 16.628 86.9975 17.69H82.6055C82.8935 16.538 83.7575 15.908 84.8735 15.908ZM91.3629 23H93.5409V18.446H95.7369C98.4909 18.446 100.363 17.132 100.363 14.36C100.363 11.984 99.0489 10.22 95.9889 10.22H91.3629V23ZM93.5409 16.484V12.164H95.6829C97.2489 12.164 98.1129 12.974 98.1129 14.324C98.1129 15.584 97.3029 16.484 95.5209 16.484H93.5409ZM105.981 23.144C107.205 23.144 108.141 22.676 108.771 21.83L108.807 21.848V23H110.733V14.216H108.717V15.278L108.681 15.296C108.051 14.504 107.079 14.09 105.963 14.09C103.551 14.09 101.733 15.998 101.733 18.644C101.733 21.362 103.551 23.144 105.981 23.144ZM106.305 21.308C104.811 21.308 103.785 20.21 103.785 18.662C103.785 16.97 104.901 15.908 106.305 15.908C107.745 15.908 108.807 17.096 108.807 18.662C108.807 20.246 107.673 21.308 106.305 21.308ZM113.277 23H115.293V18.842C115.293 17.402 116.157 16.304 117.687 16.304C117.831 16.304 118.065 16.322 118.299 16.34V14.09H118.047C116.985 14.09 116.013 14.612 115.329 15.53H115.293V14.216H113.277V23ZM122.584 23.144C123.736 23.144 124.294 22.91 124.816 22.622L124.294 20.876C123.826 21.128 123.34 21.254 122.998 21.254C122.422 21.254 122.152 20.93 122.152 20.03V15.926H124.726V14.216H122.152V11.084L120.136 11.3V14.216H119.056V15.926H120.136V20.228C120.136 22.19 121.072 23.144 122.584 23.144ZM126.548 23H128.564V18.59C128.564 16.862 129.464 15.908 130.832 15.908C132.038 15.908 132.74 16.502 132.74 18.356V23H134.756V17.834C134.756 15.188 133.46 14.09 131.534 14.09C130.382 14.09 129.32 14.558 128.6 15.422H128.564V14.216H126.548V23ZM145.246 18.5C145.246 15.944 143.572 14.09 141.106 14.09C138.532 14.09 136.696 15.908 136.696 18.608C136.696 21.362 138.586 23.144 141.25 23.144C143.14 23.144 144.238 22.442 144.976 21.488L143.572 20.282C143.122 20.84 142.402 21.308 141.358 21.308C139.99 21.308 139.036 20.552 138.784 19.274H145.192C145.21 19.13 145.246 18.824 145.246 18.5ZM141.088 15.908C142.24 15.908 142.96 16.628 143.212 17.69H138.82C139.108 16.538 139.972 15.908 141.088 15.908ZM147.326 23H149.342V18.842C149.342 17.402 150.206 16.304 151.736 16.304C151.88 16.304 152.114 16.322 152.348 16.34V14.09H152.096C151.034 14.09 150.062 14.612 149.378 15.53H149.342V14.216H147.326V23ZM156.831 23.144C159.063 23.144 160.107 21.956 160.107 20.48C160.107 18.734 158.937 18.392 157.065 17.654C156.219 17.33 155.679 17.024 155.679 16.592C155.679 16.052 156.237 15.836 156.633 15.836C157.317 15.836 158.127 16.106 158.829 16.772L159.837 15.188C158.865 14.396 157.857 14.09 156.741 14.09C154.941 14.09 153.645 15.134 153.645 16.574C153.645 18.302 154.887 18.95 156.327 19.454C157.479 19.85 158.055 20.066 158.055 20.516C158.055 21.038 157.605 21.38 156.831 21.38C155.751 21.38 154.995 21.038 154.293 20.354L153.285 21.866C154.203 22.676 155.409 23.144 156.831 23.144Z" fill="#FF3471"/>
<path d="M27.0801 15.3648C23.8761 12.1248 20.7801 8.98077 17.6721 5.86077C14.4201 2.60876 9.74009 2.57276 6.57209 5.74077C3.44009 8.87277 3.48809 13.6008 6.72809 16.8648C11.1801 21.3408 15.6441 25.7928 20.1201 30.2448C20.4561 30.5808 20.8521 30.8448 21.3561 31.2648C20.3721 32.1408 19.5441 32.8728 18.5601 33.7488C14.6001 29.7408 10.5921 25.6848 6.58409 21.6168C5.73209 20.7528 4.86809 19.9008 4.02809 19.0368C-0.279909 14.6448 -0.219909 7.67276 4.16009 3.29276C8.49209 -1.05124 15.5721 -1.11124 19.9401 3.19676C23.1081 6.32877 26.2161 9.52077 29.3481 12.6768C29.4081 12.7368 29.4321 12.8208 29.5041 12.9528C28.7481 13.6968 27.9921 14.4528 27.0801 15.3648Z" fill="#FF3471"/>
<path d="M24.4042 6.19677C23.7082 5.39277 23.0362 4.61277 22.3762 3.84477C24.5482 1.45677 29.0002 0.652769 32.4202 1.98477C39.2362 4.63677 41.3242 13.0368 36.3562 18.4128C33.0442 21.9888 29.4562 25.3128 25.9882 28.7448C25.8082 28.9248 25.6042 29.0808 25.4242 29.2368C22.2802 26.0448 19.1602 22.8888 15.9202 19.6008C16.5802 19.0608 17.4082 18.4008 18.4042 17.6088C20.4802 19.8168 22.7722 22.2528 25.4962 25.1448C26.3242 24.0648 26.8642 23.2128 27.5482 22.5048C29.5042 20.4888 31.5202 18.5328 33.4882 16.5408C36.1042 13.9008 36.4042 10.0128 34.2202 7.24077C32.0242 4.45677 28.2802 3.88077 25.0162 5.82477C24.8482 5.94477 24.6682 6.04077 24.4042 6.19677Z" fill="white"/>
</svg>
